<svg xmlns="http://www.w3.org/2000/svg" width="177.912" height="26.338" viewBox="0 0 177.912 26.338">
  <g id="Group_16255" data-name="Group 16255" transform="translate(-302 -470)">
    <g id="Group_6913" data-name="Group 6913" transform="translate(302 470)">
      <path id="Path_11788" data-name="Path 11788" d="M69.6,46.373a7.114,7.114,0,0,0-5.163-2.213H49.49v5.022h14.8a2.33,2.33,0,0,1,1.771.745,2.55,2.55,0,0,1,.709,1.813A2.588,2.588,0,0,1,64.287,54.2H49.49v5.028h14.8a2.314,2.314,0,0,1,1.746.78,2.526,2.526,0,0,1,.734,1.789,2.387,2.387,0,0,1-.734,1.71,2.353,2.353,0,0,1-1.746.745H49.49V69.29H64.438a7.541,7.541,0,0,0,7.391-7.339v-.4a7.089,7.089,0,0,0-1.923-4.826,7.588,7.588,0,0,0,1.923-5.228A7,7,0,0,0,69.6,46.373Z" transform="translate(-49.49 -43.718)"/>
      <path id="Path_11789" data-name="Path 11789" d="M233.957,56.4H222.99V53.783a2.5,2.5,0,0,1,2.479-2.468h12.324l3.553-5.026H225.319a7.146,7.146,0,0,0-5.163,2.187,7,7,0,0,0-2.226,5.156V64.09a7.014,7.014,0,0,0,2.226,5.128,7.107,7.107,0,0,0,5.163,2.211h8.639a7.119,7.119,0,0,0,5.163-2.2,6.986,6.986,0,0,0,2.228-5.111v-.4a6.987,6.987,0,0,0-2.2-5.135A7.142,7.142,0,0,0,233.957,56.4Zm1.62,9.231a2.306,2.306,0,0,1-1.771.771H225.47a2.594,2.594,0,0,1-2.479-2.463V61.425H233.8a2.41,2.41,0,0,1,1.746.722,2.327,2.327,0,0,1,.734,1.718,2.536,2.536,0,0,1-.7,1.766Z" transform="translate(-192.69 -45.528)"/>
      <path id="Path_11791" data-name="Path 11791" d="M405.441,67.556a13.169,13.169,0,1,1,13.253-13.168A13.169,13.169,0,0,1,405.441,67.556Zm0-4.492,7.565-4.337V50.048l-7.565-4.339-7.563,4.339v8.678Z" transform="translate(-340.917 -41.218)" fill="#556ee6"/>
    </g>
    <text id="connect" transform="translate(385.912 492.266)" font-size="15" font-family="aAtmospheric, a Atmospheric"><tspan x="0" y="0">CONNECT</tspan></text>
  </g>
</svg>
