<svg xmlns="http://www.w3.org/2000/svg" width="149.233" height="42.962" viewBox="0 0 149.233 42.962">
  <g id="Group_18965" data-name="Group 18965" transform="translate(-924.726 -174.935)">
    <g id="Group_16255" data-name="Group 16255" transform="translate(924.726 174.935)">
      <g id="Group_6913" data-name="Group 6913" transform="translate(0)">
        <path id="Path_11788" data-name="Path 11788" d="M65.852,45.96a5.787,5.787,0,0,0-4.2-1.8H49.49v4.085H61.528a1.9,1.9,0,0,1,1.441.606,2.075,2.075,0,0,1,.577,1.475,2.106,2.106,0,0,1-2.017,2H49.49v4.091H61.528a1.883,1.883,0,0,1,1.421.634,2.055,2.055,0,0,1,.6,1.456,1.942,1.942,0,0,1-.6,1.391,1.914,1.914,0,0,1-1.421.606H49.49v4.1H61.651a6.135,6.135,0,0,0,6.013-5.971v-.327A5.768,5.768,0,0,0,66.1,54.38a6.173,6.173,0,0,0,1.565-4.253A5.691,5.691,0,0,0,65.852,45.96Z" transform="translate(-49.49 -43.801)"/>
        <path id="Path_11789" data-name="Path 11789" d="M230.969,54.515h-8.922V52.386a2.033,2.033,0,0,1,2.017-2.008h10.027l2.891-4.089H223.941a5.813,5.813,0,0,0-4.2,1.78,5.691,5.691,0,0,0-1.811,4.195v8.507a5.707,5.707,0,0,0,1.811,4.172,5.782,5.782,0,0,0,4.2,1.8h7.028a5.792,5.792,0,0,0,4.2-1.793,5.684,5.684,0,0,0,1.813-4.158v-.325a5.685,5.685,0,0,0-1.792-4.178,5.81,5.81,0,0,0-4.222-1.773Zm1.318,7.51a1.876,1.876,0,0,1-1.441.627h-6.781a2.111,2.111,0,0,1-2.017-2V58.6h8.794a1.961,1.961,0,0,1,1.421.587,1.893,1.893,0,0,1,.6,1.4,2.063,2.063,0,0,1-.572,1.436Z" transform="translate(-197.395 -45.67)"/>
        <path id="Path_11791" data-name="Path 11791" d="M403,62.646a10.714,10.714,0,1,1,10.782-10.713A10.714,10.714,0,0,1,403,62.646Zm0-3.655,6.154-3.528V48.4L403,44.872l-6.153,3.53v7.06Z" transform="translate(-350.506 -41.218)" fill="#2593f7"/>
      </g>
      <path id="Path_32223" data-name="Path 32223" d="M4.922-28.4h6.511l-.651,2.158H5.216a1.811,1.811,0,0,0-1.672,1.226,4.232,4.232,0,0,0-.357,1.762,3.222,3.222,0,0,0,.766,2.311,1.7,1.7,0,0,0,1.264.536h6.217l-.651,2.158H4.922a3.783,3.783,0,0,1-3.281-1.736A5.819,5.819,0,0,1,.633-23.405a5.463,5.463,0,0,1,1.111-3.5A3.9,3.9,0,0,1,4.922-28.4Zm9.37,5.081a2.65,2.65,0,0,0,1.6,2.8,5.328,5.328,0,0,0,1.915.294q2.719,0,3.281-1.864a4.557,4.557,0,0,0,.153-1.226,2.669,2.669,0,0,0-2.145-2.975,5.962,5.962,0,0,0-1.289-.128q-2.464,0-3.179,1.4A3.844,3.844,0,0,0,14.293-23.316Zm9.5,0A4.711,4.711,0,0,1,21.48-18.95a7.323,7.323,0,0,1-3.8.919,6.263,6.263,0,0,1-4.392-1.481,4.911,4.911,0,0,1-1.545-3.8,4.811,4.811,0,0,1,2.094-4.251,6.734,6.734,0,0,1,3.843-1.047,6.485,6.485,0,0,1,4.66,1.57A4.916,4.916,0,0,1,23.791-23.316ZM32.715-28.4h2.413v10.149H32.715L27.4-24.937v6.69H24.991V-28l2.413-.651,5.311,6.69Zm12.1,0H47.23v10.149H44.817l-5.311-6.69v6.69H37.093V-28l2.413-.651,5.311,6.69Zm6.792,6.166v1.826h7.4l-.651,2.158H49.2V-28.4h9.817l-.651,2.158H51.609v1.851H57.9v2.158ZM64-28.4h6.511l-.651,2.158H64.3a1.811,1.811,0,0,0-1.672,1.226,4.232,4.232,0,0,0-.357,1.762,3.222,3.222,0,0,0,.766,2.311,1.7,1.7,0,0,0,1.264.536h6.217l-.651,2.158H64a3.783,3.783,0,0,1-3.281-1.736,5.819,5.819,0,0,1-1.009-3.421,5.463,5.463,0,0,1,1.111-3.5A3.9,3.9,0,0,1,64-28.4Zm6.753,2.158V-28.4H81.367l-.651,2.158H76.924v7.992H74.5V-26.24Z" transform="translate(67.866 37.131)"/>
    </g>
    <text id="solo" transform="translate(966.891 213.897)" fill="#2593f7" font-size="14" font-family="Outfit-Medium, Outfit" font-weight="500"><tspan x="0" y="0">solo</tspan></text>
  </g>
</svg>
